<svg xmlns="http://www.w3.org/2000/svg" data-name="Layer 3" viewBox="0 0 64 80" x="0px" y="0px"><title>fridge-kitchenware-refrigerator-electronics-electronic-kitchen</title><path d="M50,1H14a3,3,0,0,0-3,3V56a3,3,0,0,0,2,2.81V62a1,1,0,0,0,1,1H50a1,1,0,0,0,1-1V58.81A3,3,0,0,0,53,56V4A3,3,0,0,0,50,1ZM27,57V3h1V57ZM13,4a1,1,0,0,1,1-1H25V57H14a1,1,0,0,1-1-1Zm2,57V59H49v2Zm36-5a1,1,0,0,1-1,1H30V3H50a1,1,0,0,1,1,1Z"/><path d="M15,33h8a1,1,0,0,0,1-1V20a1,1,0,0,0-1-1H15a1,1,0,0,0-1,1V32A1,1,0,0,0,15,33Zm1-2V24h6v7Zm6-10v1H16V21Z"/><rect x="18" y="27" width="2" height="2"/><path d="M36,11H46a1,1,0,0,0,.71-.29A1.05,1.05,0,0,0,47,10V6a1,1,0,0,0-1-1H36a1,1,0,0,0-1,1v4a1,1,0,0,0,.29.71A1,1,0,0,0,36,11Zm1-4h8V9H37Z"/><rect x="32" y="26" width="2" height="12"/><path d="M49,51H35a1,1,0,0,0-1,1v3a1,1,0,0,0,1,1H49a1,1,0,0,0,1-1V52A1,1,0,0,0,49,51Zm-1,3H36V53H48Z"/><polygon points="35.29 45.29 36.71 46.71 39.41 44 41 44 41 45.58 38.29 48.29 39.71 49.71 41 48.41 41 50 43 50 43 48.41 44.29 49.71 45.71 48.29 43 45.58 43 44 44.58 44 47.29 46.71 48.71 45.29 47.41 44 49 44 49 42 47.41 42 48.71 40.71 47.29 39.29 44.59 42 43 42 43 40.41 45.71 37.71 44.29 36.29 43 37.58 43 36 41 36 41 37.58 39.71 36.29 38.29 37.71 41 40.41 41 42 39.41 42 36.71 39.29 35.29 40.71 36.59 42 35 42 35 44 36.59 44 35.29 45.29"/><text x="0" y="79" fill="#000000" font-size="5px" font-weight="bold" font-family="'Helvetica Neue', Helvetica, Arial-Unicode, Arial, Sans-serif">Created by nareerat jaikaew</text><text x="0" y="84" fill="#000000" font-size="5px" font-weight="bold" font-family="'Helvetica Neue', Helvetica, Arial-Unicode, Arial, Sans-serif">from the Noun Project</text></svg>