<svg xmlns="http://www.w3.org/2000/svg" viewBox="0 0 64 60" x="0px" y="0px"><title>fridge</title><g><path d="M62,5a3,3,0,0,0-3-3H29a2.981,2.981,0,0,0-2,.78A2.981,2.981,0,0,0,25,2H5A3,3,0,0,0,2,5V25a3,3,0,0,0,3,3H25a2.961,2.961,0,0,0,1.319-.319A2.961,2.961,0,0,0,26,29V59a3,3,0,0,0,3,3H59a3,3,0,0,0,3-3V29a2.981,2.981,0,0,0-.78-2A2.981,2.981,0,0,0,62,25ZM29,4H59a1,1,0,0,1,1,1V25a1,1,0,0,1-1,1H42V15a1,1,0,0,0-1-1H37a3,3,0,0,0,3-3V7a1,1,0,0,0-1-1H31a1,1,0,0,0-1,1v4a3,3,0,0,0,3,3H28V5A1,1,0,0,1,29,4ZM28,25V16H40V26H29A1,1,0,0,1,28,25Zm5-13a1,1,0,0,1-1-1V8h6v3a1,1,0,0,1-1,1ZM5,4H25a1,1,0,0,1,1,1V19H25V9a1,1,0,0,0-1-1H23V5H21V8H20a1,1,0,0,0-1,1V19H18V9a1,1,0,0,0-1-1H16V5H14V8H13a1,1,0,0,0-1,1V19H11V9a1,1,0,0,0-1-1H9V5H7V8H6A1,1,0,0,0,5,9V19H4V5A1,1,0,0,1,5,4Zm18,6v9H21V10Zm-7,0v9H14V10ZM9,10v9H7V10ZM25,26H5a1,1,0,0,1-1-1V21H26v4A1,1,0,0,1,25,26ZM60,59a1,1,0,0,1-1,1H29a1,1,0,0,1-1-1V29a1,1,0,0,1,1-1H59a1,1,0,0,1,1,1Z"/><path d="M55,32H54v2h1a1,1,0,0,1,1,1v9a1,1,0,0,1-1,1H54v2h1a3,3,0,0,0,3-3V35A3,3,0,0,0,55,32Z"/><rect x="30" y="22" width="8" height="2"/><rect x="30" y="18" width="8" height="2"/><path d="M50,23V9a1,1,0,0,0-1-1H48V5H46V8H45a1,1,0,0,0-1,1V23a3,3,0,0,0,6,0Zm-2,0a1,1,0,0,1-2,0V10h2Z"/><path d="M58,23V9a1,1,0,0,0-1-1H56V5H54V8H53a1,1,0,0,0-1,1V23a3,3,0,0,0,6,0Zm-2,0a1,1,0,0,1-2,0V10h2Z"/></g><text x="0" y="79" fill="#000000" font-size="5px" font-weight="bold" font-family="'Helvetica Neue', Helvetica, Arial-Unicode, Arial, Sans-serif"></text><text x="0" y="84" fill="#000000" font-size="5px" font-weight="bold" font-family="'Helvetica Neue', Helvetica, Arial-Unicode, Arial, Sans-serif"></text></svg>
